<svg width="380" height="384" viewBox="0 0 380 384" fill="none" xmlns="http://www.w3.org/2000/svg">
<path d="M310.579 230.091L299.995 230.087L69.7168 230C31.2749 230 0 198.639 0 160.089C0 126.813 22.9863 98.9956 54.2788 91.9214C53.7705 89.1226 53.5146 86.2661 53.5146 83.3638C53.5146 57.1108 74.8726 35.7524 101.125 35.7524C109.846 35.7524 118.203 38.0786 125.495 42.4395C145.477 16.0147 176.309 0.538086 209.956 0.538086C262.54 0.538086 306.865 39.2666 314.734 90.3042C351.137 92.7524 380 123.138 380 160.138C380 198.334 348.903 229.715 310.682 230.09C310.647 230.091 310.613 230.091 310.579 230.091ZM300.003 210.087L310.534 210.091C337.814 209.796 360 187.397 360 160.138C360 132.572 337.562 110.145 309.983 110.145C308.805 110.145 307.545 110.222 306.469 110.296C303.826 110.479 301.195 109.6 299.191 107.847C297.188 106.095 295.966 103.616 295.796 100.96C292.902 55.8638 255.197 20.5381 209.956 20.5381C179.617 20.5381 152.098 36.0483 136.342 62.0273C134.747 64.6572 132.03 66.4067 128.976 66.7715C125.924 67.1338 122.87 66.0747 120.701 63.8936C115.48 58.6436 108.528 55.7524 101.125 55.7524C85.9009 55.7524 73.5146 68.1387 73.5146 83.3638C73.5146 87.7075 74.5005 91.8706 76.4448 95.7378C77.9717 98.7749 77.8511 102.38 76.1245 105.309C74.3979 108.237 71.3018 110.087 67.9048 110.222C41.0425 111.282 20 133.187 20 160.089C20 187.61 42.3027 210 69.7168 210H80L300.003 210.087Z" fill="#010202"/>
<path d="M94.0024 365.054C91.4414 365.054 88.8809 364.076 86.9277 362.121C83.0244 358.214 83.0278 351.883 86.9351 347.979L148.838 286.139C152.746 282.236 159.077 282.238 162.98 286.146C166.884 290.053 166.88 296.384 162.973 300.287L101.07 362.128C99.1177 364.078 96.5601 365.054 94.0024 365.054Z" fill="#010202"/>
<path d="M155.875 365.085C153.313 365.085 150.753 364.107 148.8 362.152L86.959 300.249C83.0557 296.342 83.0591 290.011 86.9663 286.107C90.874 282.205 97.2056 282.207 101.108 286.114L162.949 348.018C166.853 351.925 166.849 358.256 162.942 362.159C160.99 364.109 158.432 365.085 155.875 365.085Z" fill="#010202"/>
<path d="M174.954 334C174.952 334 174.951 334 174.949 334L74.9492 334.029C69.4263 334.026 64.9512 329.532 64.9541 324.01C64.957 318.488 69.4336 314 74.9541 314C74.9556 314 74.9575 314 74.959 314L174.959 314.104C180.482 314.107 184.957 318.534 184.954 324.057C184.951 329.577 180.474 334 174.954 334Z" fill="#010202"/>
<path d="M124.929 384C124.927 384 124.926 384 124.924 384C119.401 384 114.926 379.584 114.929 374.062L114.979 274.028C114.982 268.507 119.459 264 124.979 264C124.981 264 124.982 264 124.984 264C130.507 264 134.982 268.549 134.979 274.071L134.929 374.038C134.926 379.56 130.449 384 124.929 384Z" fill="#010202"/>
<path d="M232.711 320.734C229.266 320.734 225.914 318.953 224.058 315.761C221.28 310.987 222.898 304.866 227.673 302.089L288.179 266.89C292.953 264.108 299.074 265.73 301.851 270.505C304.628 275.278 303.01 281.399 298.235 284.177L237.729 319.376C236.147 320.297 234.418 320.734 232.711 320.734Z" fill="#010202"/>
<path d="M293.707 319.83C292.096 319.83 290.462 319.439 288.945 318.617L227.422 285.227C222.569 282.592 220.769 276.521 223.403 271.667C226.037 266.813 232.107 265.015 236.963 267.648L298.486 301.039C303.34 303.674 305.14 309.744 302.505 314.599C300.694 317.936 297.256 319.83 293.707 319.83Z" fill="#010202"/>
<path d="M262.937 338C262.935 338 262.934 338 262.932 338C257.408 338 252.934 333.29 252.937 327.768L252.972 258.97C252.975 253.448 257.451 249 262.972 249C262.974 249 262.975 249 262.977 249C268.5 249 272.975 253.343 272.972 258.866L272.937 327.847C272.934 333.368 268.457 338 262.937 338Z" fill="#010202"/>
</svg>
