<svg width="221" height="241" viewBox="0 0 221 241" fill="none" xmlns="http://www.w3.org/2000/svg">
<path d="M120.912 240.098C54.7441 240.098 0.912109 186.266 0.912109 120.098C0.912109 53.9297 54.7441 0.0976562 120.912 0.0976562C124.118 0.0976562 127.402 0.231447 130.673 0.495117C134.25 0.784177 137.397 2.96679 138.922 6.21484C140.446 9.46289 140.113 13.2793 138.05 16.2148C126.184 33.0908 119.912 52.9531 119.912 73.6533C119.912 98.9443 129.375 123.079 146.557 141.613C163.646 160.049 186.803 171.31 211.759 173.321C215.335 173.609 218.483 175.792 220.008 179.041C221.532 182.289 221.199 186.105 219.136 189.041C196.657 221.011 159.938 240.098 120.912 240.098ZM112.313 20.4639C61.1846 24.8408 20.9121 67.8555 20.9121 120.098C20.9121 175.238 65.772 220.098 120.912 220.098C147.803 220.098 173.38 209.222 192.024 190.39C169.089 184.934 148.188 172.791 131.89 155.211C111.269 132.967 99.9121 104.003 99.9121 73.6533C99.9121 54.9951 104.16 36.9014 112.313 20.4639Z" fill="#010202"/>
</svg>
