<svg width="380" height="231" viewBox="0 0 380 231" fill="none" xmlns="http://www.w3.org/2000/svg">
<path d="M69.7168 230.192C31.2451 229.939 0 198.534 0 160.186C0 126.862 22.9868 99.0063 54.2788 91.9233C53.77 89.124 53.5146 86.2676 53.5146 83.3643C53.5146 57.1118 74.8726 35.7539 101.125 35.7539C109.845 35.7539 118.203 38.0811 125.495 42.4419C145.476 16.019 176.307 0.544434 209.956 0.544434C262.544 0.544434 306.871 39.2827 314.736 90.3286C351.134 92.7808 380 123.176 380 160.186C380 198.408 348.904 229.811 310.682 230.187L69.7168 230.192ZM101.125 55.7539C85.9009 55.7539 73.5146 68.1396 73.5146 83.3643C73.5146 87.7075 74.5005 91.8711 76.4448 95.7383C77.9717 98.7754 77.8511 102.38 76.1245 105.309C74.3979 108.237 71.3018 110.088 67.9048 110.222C41.0425 111.283 20 133.229 20 160.186C20 187.579 42.3325 210.012 69.7827 210.192L310.583 210.188C337.788 209.919 360 187.488 360 160.186C360 132.606 337.562 110.169 309.983 110.169C308.956 110.169 307.838 110.213 306.468 110.309C303.814 110.494 301.194 109.611 299.191 107.859C297.188 106.107 295.966 103.628 295.795 100.973C292.902 55.8726 255.197 20.5444 209.956 20.5444C179.616 20.5444 152.097 36.0532 136.342 62.0303C134.747 64.6602 132.03 66.4097 128.976 66.7744C125.923 67.1348 122.87 66.0776 120.701 63.8965C115.479 58.6455 108.527 55.7539 101.125 55.7539Z" fill="#010202"/>
</svg>
