<svg width="460" height="420" viewBox="0 0 460 420" fill="none" xmlns="http://www.w3.org/2000/svg">
<path d="M326.798 270C323.89 270 321.006 268.738 319.029 266.304C315.548 262.017 316.201 255.719 320.488 252.237C339.306 236.957 350.098 214.307 350.098 190.098C350.098 145.985 314.21 110.098 270.098 110.098C229.294 110.098 195.117 140.626 190.596 181.109C189.983 186.598 185.039 190.548 179.548 189.938C174.06 189.325 170.107 184.378 170.72 178.89C176.372 128.27 219.095 90.0977 270.098 90.0977C325.238 90.0977 370.098 134.958 370.098 190.098C370.098 220.359 356.611 248.667 333.096 267.763C331.242 269.268 329.013 270 326.798 270Z" fill="#010202"/>
<path d="M270 74C264.478 74 260 69.5229 260 64V10C260 4.47705 264.478 0 270 0C275.522 0 280 4.47705 280 10V64C280 69.5229 275.522 74 270 74Z" fill="#010202"/>
<path d="M144 200H90C84.477 200 80 195.523 80 190C80 184.477 84.477 180 90 180H144C149.523 180 154 184.477 154 190C154 195.523 149.523 200 144 200Z" fill="#010202"/>
<path d="M450 200H396C390.478 200 386 195.523 386 190C386 184.477 390.478 180 396 180H450C455.522 180 460 184.477 460 190C460 195.523 455.522 200 450 200Z" fill="#010202"/>
<path d="M358.542 111.458C355.982 111.458 353.424 110.482 351.471 108.529C347.565 104.624 347.565 98.292 351.471 94.3867L390.208 55.6494C394.114 51.7441 400.444 51.7441 404.351 55.6494C408.256 59.5547 408.256 65.8867 404.351 69.792L365.613 108.529C363.66 110.482 361.102 111.458 358.542 111.458Z" fill="#010202"/>
<path d="M181.458 111.458C178.899 111.458 176.339 110.482 174.387 108.529L135.649 69.792C131.745 65.8867 131.745 59.5547 135.649 55.6494C139.555 51.7441 145.887 51.7441 149.792 55.6494L188.529 94.3867C192.434 98.292 192.434 104.624 188.529 108.529C186.577 110.482 184.017 111.458 181.458 111.458Z" fill="#010202"/>
<path d="M397.279 327.279C394.72 327.279 392.161 326.303 390.208 324.351L351.471 285.613C347.565 281.708 347.565 275.376 351.471 271.471C355.377 267.565 361.707 267.565 365.613 271.471L404.351 310.208C408.256 314.113 408.256 320.445 404.351 324.351C402.397 326.303 399.839 327.279 397.279 327.279Z" fill="#010202"/>
<path d="M69.9668 420C31.4951 419.747 0.25 388.342 0.25 349.994C0.25 316.669 23.2368 288.814 54.5288 281.731C54.02 278.932 53.7646 276.075 53.7646 273.172C53.7646 246.919 75.1226 225.562 101.375 225.562C110.095 225.562 118.453 227.889 125.745 232.25C145.726 205.827 176.557 190.352 210.206 190.352C262.794 190.352 307.121 229.09 314.986 280.136C351.385 282.588 380.25 312.984 380.25 349.994C380.25 388.216 349.154 419.618 310.932 419.995L69.9668 420ZM101.375 245.562C86.1509 245.562 73.7646 257.947 73.7646 273.172C73.7646 277.515 74.7505 281.679 76.6948 285.546C78.2217 288.583 78.1011 292.188 76.3745 295.117C74.6479 298.045 71.5518 299.896 68.1548 300.03C41.2925 301.09 20.25 323.037 20.25 349.994C20.25 377.386 42.5825 399.819 70.0327 400L310.833 399.995C338.037 399.727 360.25 377.296 360.25 349.994C360.25 322.414 337.812 299.977 310.233 299.977C309.206 299.977 308.089 300.021 306.719 300.116C304.072 300.297 301.444 299.42 299.441 297.667C297.438 295.915 296.216 293.437 296.046 290.78C293.152 245.68 255.447 210.352 210.206 210.352C179.866 210.352 152.347 225.861 136.592 251.838C134.997 254.468 132.28 256.217 129.226 256.582C126.172 256.942 123.12 255.885 120.951 253.704C115.729 248.453 108.777 245.562 101.375 245.562Z" fill="#010202"/>
</svg>
