<svg width="380" height="337" viewBox="0 0 380 337" fill="none" xmlns="http://www.w3.org/2000/svg">
<path d="M310.58 230.091L299.996 230.087C294.473 230.085 289.998 225.606 290 220.083C290.001 214.562 294.479 210.087 300 210.087H300.003L310.535 210.091C337.815 209.796 360 187.397 360 160.138C360 132.572 337.562 110.145 309.983 110.145C308.805 110.145 307.545 110.222 306.468 110.296C303.814 110.483 301.194 109.6 299.191 107.847C297.188 106.095 295.966 103.616 295.795 100.96C292.903 55.8638 255.197 20.5381 209.956 20.5381C179.617 20.5381 152.098 36.0483 136.342 62.0273C134.747 64.6572 132.03 66.4067 128.976 66.7715C125.923 67.1313 122.87 66.0747 120.701 63.8936C115.48 58.6436 108.528 55.7524 101.125 55.7524C85.9009 55.7524 73.5146 68.1387 73.5146 83.3638C73.5146 87.7075 74.5005 91.8706 76.4449 95.7378C77.9717 98.7749 77.8511 102.38 76.1245 105.309C74.398 108.237 71.3018 110.087 67.9048 110.222C41.0425 111.282 20 133.187 20 160.089C20 187.61 42.3027 210 69.7168 210H80C85.5229 210 90 214.478 90 220C90 225.522 85.5229 230 80 230H69.7168C31.2749 230 0 198.639 0 160.089C0 126.813 22.9863 98.9956 54.2788 91.9214C53.7705 89.1226 53.5146 86.2661 53.5146 83.3638C53.5146 57.1108 74.8726 35.7524 101.125 35.7524C109.846 35.7524 118.203 38.0786 125.495 42.4395C145.477 16.0147 176.309 0.538086 209.956 0.538086C262.541 0.538086 306.865 39.2666 314.734 90.3042C351.136 92.7524 380 123.138 380 160.138C380 198.334 348.904 229.715 310.682 230.09C310.648 230.091 310.614 230.091 310.58 230.091Z" fill="#010202"/>
<path d="M96.0332 324.085C93.4761 324.085 90.9194 323.11 88.9673 321.161C85.0591 317.259 85.0547 310.927 88.957 307.019L131.915 264H106.033C101.941 264 98.2627 261.508 96.7456 257.707C95.229 253.907 96.1802 249.566 99.147 246.749L162.147 186.92C166.152 183.117 172.481 183.278 176.284 187.285C180.087 191.289 179.924 197.619 175.919 201.422L131.085 244H156.033C160.077 244 163.722 246.435 165.271 250.17C166.819 253.905 165.966 258.205 163.109 261.066L103.109 321.151C101.156 323.106 98.5947 324.085 96.0332 324.085Z" fill="#010202"/>
<path d="M197.958 288.94C195.397 288.94 192.836 287.962 190.883 286.007C186.98 282.1 186.983 275.769 190.891 271.865L233.799 229H207.958C203.871 229 200.195 226.513 198.675 222.719C197.155 218.925 198.097 214.587 201.054 211.766L264.054 151.645C268.05 147.832 274.379 147.979 278.192 151.975C282.005 155.971 281.857 162.3 277.862 166.113L232.921 209H257.958C262.003 209 265.65 211.438 267.198 215.176C268.745 218.913 267.888 223.216 265.025 226.074L205.025 286.014C203.073 287.964 200.516 288.94 197.958 288.94Z" fill="#010202"/>
<path d="M146.958 336.939C144.397 336.939 141.836 335.962 139.883 334.007C135.98 330.1 135.983 323.768 139.891 319.865L164.933 294.849C168.84 290.945 175.171 290.948 179.075 294.855C182.978 298.763 182.975 305.095 179.067 308.997L154.025 334.014C152.073 335.964 149.515 336.939 146.958 336.939Z" fill="#010202"/>
<path d="M55.958 303.939C53.397 303.939 50.8364 302.962 48.8833 301.007C44.98 297.1 44.9834 290.769 48.8906 286.865L64.6826 271.089C68.5898 267.187 74.9214 267.189 78.8247 271.096C82.728 275.003 82.7246 281.334 78.8174 285.237L63.0254 301.014C61.0732 302.964 58.5156 303.939 55.958 303.939Z" fill="#010202"/>
<path d="M234.958 317.939C232.397 317.939 229.836 316.962 227.883 315.007C223.98 311.1 223.983 304.769 227.891 300.865L279.883 248.926C283.79 245.022 290.122 245.025 294.025 248.933C297.928 252.84 297.925 259.171 294.018 263.074L242.025 315.014C240.073 316.964 237.515 317.939 234.958 317.939Z" fill="#010202"/>
</svg>
