<svg width="444" height="362" viewBox="0 0 444 362" fill="none" xmlns="http://www.w3.org/2000/svg">
<path d="M69.9668 362C31.4951 361.747 0.25 330.342 0.25 291.994C0.25 258.669 23.2363 230.814 54.5293 223.731C54.0205 220.932 53.7646 218.075 53.7646 215.172C53.7646 188.919 75.123 167.562 101.375 167.562C110.096 167.562 118.453 169.888 125.745 174.25C145.727 147.827 176.558 132.352 210.205 132.352C262.793 132.352 307.121 171.09 314.986 222.136C351.385 224.588 380.25 254.984 380.25 291.994C380.25 330.216 349.154 361.618 310.932 361.995L69.9668 362ZM101.375 187.562C86.1504 187.562 73.7646 199.947 73.7646 215.172C73.7646 219.515 74.751 223.678 76.6953 227.546C78.2217 230.583 78.1016 234.188 76.375 237.117C74.6484 240.045 71.5518 241.896 68.1553 242.03C41.293 243.09 20.25 265.037 20.25 291.994C20.25 319.386 42.582 341.819 70.0322 342L310.833 341.995C338.037 341.727 360.25 319.296 360.25 291.994C360.25 264.414 337.812 241.977 310.233 241.977C309.206 241.977 308.089 242.021 306.719 242.116C304.074 242.299 301.444 241.419 299.441 239.667C297.438 237.915 296.216 235.437 296.046 232.78C293.152 187.68 255.446 152.352 210.205 152.352C179.866 152.352 152.347 167.861 136.591 193.838C134.996 196.468 132.279 198.218 129.226 198.582C126.171 198.945 123.12 197.885 120.95 195.704C115.729 190.453 108.776 187.562 101.375 187.562Z" fill="#010202"/>
<path d="M369.24 237.167C364.707 237.167 360.602 234.064 359.516 229.46C358.248 224.084 361.578 218.7 366.954 217.432C385.292 213.108 401.909 203.696 415.04 190.394C392.098 184.939 371.191 172.795 354.89 155.211C334.269 132.967 322.912 104.002 322.912 73.6533C322.912 54.9951 327.161 36.8999 335.314 20.4619C312.31 22.415 290.844 32.1865 274.134 48.4673C255.392 66.7271 244.673 91.1641 243.951 117.277C243.798 122.798 239.213 127.187 233.679 126.997C228.158 126.844 223.807 122.245 223.959 116.724C224.825 85.3813 237.687 56.0532 260.177 34.1421C282.709 12.1885 312.447 0.0981445 343.912 0.0981445C347.118 0.0981445 350.402 0.231449 353.671 0.494629C357.248 0.782229 360.396 2.96484 361.922 6.21338C363.446 9.46192 363.113 13.2783 361.05 16.2139C349.184 33.0913 342.912 52.9531 342.912 73.6533C342.912 98.9443 352.375 123.08 369.557 141.614C386.647 160.049 409.803 171.31 434.759 173.321C438.335 173.61 441.483 175.792 443.008 179.041C444.532 182.289 444.199 186.105 442.136 189.041C425.172 213.168 400.102 230.164 371.544 236.898C370.772 237.08 370 237.167 369.24 237.167Z" fill="#010202"/>
</svg>
