<svg width="351" height="248" viewBox="0 0 351 248" fill="none" xmlns="http://www.w3.org/2000/svg">
<path d="M290 136H36.918C17.2461 136 0.625977 119.061 0.625977 99.0107C0.625977 78.6147 16.8799 62.021 36.8584 62.021C56.8213 62.021 73.0615 78.5059 73.0615 98.7681C73.0615 104.291 68.584 108.768 63.0615 108.768C57.5391 108.768 53.0615 104.291 53.0615 98.7681C53.0615 89.6904 45.6416 82.021 36.8584 82.021C28.0596 82.021 20.626 89.8013 20.626 99.0107C20.626 108.22 28.0869 116 36.918 116H290C295.522 116 300 120.477 300 126C300 131.523 295.522 136 290 136Z" fill="#010202"/>
<path d="M341 93H136.138C111.012 93 90.5703 72.3569 90.5703 46.9829C90.5703 21.6089 110.919 0.965332 135.931 0.965332C160.886 0.965332 181.188 21.5259 181.188 46.7983C181.188 52.3213 176.71 56.7983 171.188 56.7983C165.665 56.7983 161.188 52.3213 161.188 46.7983C161.188 32.5542 149.857 20.9653 135.931 20.9653C121.947 20.9653 110.57 32.6367 110.57 46.9829C110.57 61.0854 122.278 73 136.138 73H341C346.522 73 351 77.4771 351 83C351 88.5229 346.522 93 341 93Z" fill="#010202"/>
<path d="M69.3643 247.823C57.2256 247.823 45.8428 243.217 37.3115 234.853C28.6963 226.406 23.9512 215.062 23.9512 202.912C23.9512 178.147 44.3691 158 69.4658 158H319C324.522 158 329 162.478 329 168C329 173.522 324.522 178 319 178H69.4658C55.1582 178 43.9512 188.942 43.9512 202.912C43.9512 216.881 55.1143 227.823 69.3643 227.823C83.5859 227.823 94.7266 216.8 94.7266 202.728C94.7266 197.205 99.2041 192.728 104.727 192.728C110.249 192.728 114.727 197.205 114.727 202.728C114.727 227.594 94.3769 247.823 69.3643 247.823Z" fill="#010202"/>
</svg>
