<svg width="411" height="440" viewBox="0 0 411 440" fill="none" xmlns="http://www.w3.org/2000/svg">
<path d="M65.0684 335.615C29.2168 335.379 0.102539 306.115 0.102539 270.382C0.102539 239.592 21.1641 213.812 49.9473 206.945C49.5566 204.561 49.3604 202.134 49.3604 199.671C49.3604 175.068 69.376 155.053 93.9785 155.053C101.908 155.053 109.518 157.105 116.205 160.961C134.758 136.785 163.168 122.644 194.152 122.644C242.736 122.644 283.723 158.274 291.285 205.333C324.902 207.926 351.465 236.11 351.465 270.382C351.465 305.998 322.489 335.259 286.874 335.61L65.0684 335.615ZM93.9785 175.053C80.4043 175.053 69.3604 186.097 69.3604 199.671C69.3604 203.543 70.2393 207.255 71.9727 210.704C73.5 213.741 73.3789 217.346 71.6523 220.274C69.9258 223.203 66.8291 225.053 63.4326 225.188C39.1357 226.147 20.1025 245.999 20.1025 270.382C20.1025 295.16 40.3037 315.451 65.1348 315.615L286.775 315.61C311.373 315.368 331.465 295.078 331.465 270.382C331.465 245.435 311.169 225.139 286.223 225.139C285.295 225.139 284.284 225.179 283.042 225.266C280.377 225.451 277.768 224.568 275.766 222.816C273.763 221.064 272.541 218.585 272.37 215.93C269.733 174.835 235.376 142.644 194.152 142.644C166.507 142.644 141.431 156.776 127.073 180.447C125.479 183.077 122.762 184.827 119.708 185.191C116.655 185.553 113.603 184.494 111.433 182.313C106.777 177.631 100.578 175.053 93.9785 175.053Z" fill="#010202"/>
<path d="M347.247 218.884C342.98 218.884 339.029 216.133 337.699 211.844C336.063 206.569 339.013 200.967 344.287 199.331C358.106 195.044 370.771 187.413 381.105 177.294C360.387 172.083 341.522 160.963 326.743 145.021C307.626 124.399 297.098 97.5464 297.098 69.4102C297.098 52.5942 300.82 36.2729 307.972 21.3755C288.222 23.3696 269.691 31.7222 255.023 45.3931C238.168 61.103 227.941 82.3594 226.23 105.247C225.818 110.754 221.006 114.893 215.512 114.473C210.005 114.061 205.874 109.262 206.286 103.754C208.374 75.8354 220.84 49.9131 241.387 30.7622C262.041 11.5122 288.974 0.910645 317.223 0.910645C320.199 0.910645 323.243 1.03418 326.271 1.27832C329.847 1.56689 332.995 3.74951 334.52 6.99756C336.044 10.2461 335.711 14.062 333.647 16.9976C322.82 32.397 317.098 50.521 317.098 69.4102C317.098 92.4878 325.732 114.512 341.41 131.424C357.005 148.246 378.135 158.521 400.906 160.356C404.482 160.645 407.631 162.828 409.155 166.076C410.68 169.324 410.347 173.141 408.283 176.076C394.167 196.153 373.544 211.196 350.213 218.433C349.227 218.739 348.228 218.884 347.247 218.884Z" fill="#010202"/>
<path d="M155.266 439.127C152.704 439.127 150.144 438.149 148.191 436.194C144.288 432.287 144.291 425.955 148.198 422.053L171.248 399.026C175.155 395.123 181.488 395.126 185.39 399.033C189.293 402.94 189.29 409.272 185.383 413.175L162.333 436.201C160.381 438.151 157.823 439.127 155.266 439.127Z" fill="#010202"/>
<path d="M75.1857 386.661C72.6241 386.661 70.0636 385.684 68.1105 383.729C64.2081 379.821 64.2111 373.489 68.1183 369.586L82.6544 355.065C86.5616 351.162 92.8937 351.166 96.797 355.073C100.699 358.98 100.696 365.312 96.7892 369.216L82.253 383.736C80.3009 385.687 77.7433 386.661 75.1857 386.661Z" fill="#010202"/>
<path d="M203.129 386.661C200.567 386.661 198.008 385.684 196.055 383.729C192.151 379.821 192.154 373.49 196.062 369.587L210.597 355.066C214.504 351.163 220.835 351.166 224.738 355.073C228.642 358.98 228.639 365.312 224.731 369.215L210.196 383.735C208.244 385.686 205.687 386.661 203.129 386.661Z" fill="#010202"/>
<path d="M244.549 409.823C241.987 409.823 239.426 408.846 237.474 406.89C233.57 402.982 233.574 396.65 237.482 392.748L275.214 355.065C279.122 351.161 285.455 351.166 289.355 355.074C293.259 358.981 293.255 365.313 289.347 369.216L251.615 406.898C249.663 408.849 247.105 409.823 244.549 409.823Z" fill="#010202"/>
<path d="M105.561 419.948C102.999 419.948 100.438 418.971 98.4863 417.016C94.583 413.108 94.5859 406.776 98.4932 402.874L146.35 355.066C150.257 351.163 156.59 351.166 160.491 355.073C164.395 358.98 164.392 365.313 160.484 369.215L112.628 417.022C110.676 418.973 108.118 419.948 105.561 419.948Z" fill="#010202"/>
</svg>
