<svg width="351" height="301" viewBox="0 0 351 301" fill="none" xmlns="http://www.w3.org/2000/svg">
<path d="M313.708 135H61C55.4775 135 51 130.522 51 125C51 119.478 55.4775 115 61 115H313.708C322.564 115 330.047 107.392 330.047 98.3857C330.047 89.2246 322.786 81.7715 313.861 81.7715C304.979 81.7715 297.752 89.1719 297.752 98.2676C297.752 103.79 293.274 108.268 287.752 108.268C282.229 108.268 277.752 103.79 277.752 98.2676C277.752 78.1436 293.95 61.7715 313.861 61.7715C333.814 61.7715 350.047 78.1963 350.047 98.3857C350.047 118.575 333.745 135 313.708 135Z" fill="#010202"/>
<path d="M214.488 92H10C4.47754 92 0 87.5225 0 82C0 76.4775 4.47754 72 10 72H214.488C228.612 72 240.103 60.4971 240.103 46.3574C240.103 32.2188 228.747 20.7158 214.789 20.7158C200.914 20.7158 189.626 32.1914 189.626 46.2979C189.626 51.8203 185.148 56.2979 179.626 56.2979C174.104 56.2979 169.626 51.8203 169.626 46.2979C169.626 21.1641 189.886 0.71582 214.789 0.71582C239.775 0.71582 260.103 21.1904 260.103 46.3574C260.103 71.5244 239.64 92 214.488 92Z" fill="#010202"/>
<path d="M299.355 247.573C274.395 247.573 254.087 227.231 254.087 202.228C254.087 196.705 258.564 192.228 264.087 192.228C269.609 192.228 274.087 196.705 274.087 202.228C274.087 216.203 285.422 227.573 299.355 227.573C313.343 227.573 324.723 216.229 324.723 202.287C324.723 188.344 313.256 177 299.16 177H30C24.4775 177 20 172.522 20 167C20 161.478 24.4775 157 30 157H299.16C324.283 157 344.723 177.315 344.723 202.287C344.723 227.258 324.371 247.573 299.355 247.573Z" fill="#010202"/>
<path d="M132.958 300.939C130.396 300.939 127.836 299.962 125.884 298.007C121.98 294.1 121.983 287.768 125.891 283.865L150.933 258.849C154.84 254.945 161.173 254.948 165.074 258.855C168.978 262.763 168.975 269.095 165.067 272.997L140.025 298.014C138.073 299.964 135.516 300.939 132.958 300.939Z" fill="#010202"/>
<path d="M45.958 243.939C43.3965 243.939 40.8369 242.962 38.8838 241.007C34.9805 237.1 34.9834 230.769 38.8906 226.865L54.6826 211.089C58.5898 207.186 64.9209 207.188 68.8242 211.096C72.7275 215.003 72.7246 221.334 68.8174 225.237L53.0254 241.014C51.0732 242.964 48.5156 243.939 45.958 243.939Z" fill="#010202"/>
<path d="M184.958 243.939C182.396 243.939 179.837 242.962 177.884 241.007C173.98 237.1 173.983 230.769 177.891 226.865L193.683 211.089C197.59 207.186 203.921 207.188 207.824 211.096C211.728 215.003 211.725 221.334 207.817 225.237L192.025 241.014C190.073 242.964 187.516 243.939 184.958 243.939Z" fill="#010202"/>
<path d="M227.958 282.103C225.394 282.103 222.831 281.123 220.877 279.164C216.977 275.253 216.986 268.922 220.896 265.021L239.889 246.082C243.8 242.184 250.13 242.189 254.031 246.102C257.931 250.013 257.922 256.344 254.012 260.244L235.019 279.184C233.067 281.13 230.513 282.103 227.958 282.103Z" fill="#010202"/>
<path d="M78.958 280.103C76.3965 280.103 73.8359 279.125 71.8838 277.17C67.9805 273.263 67.9834 266.932 71.8906 263.028L123.883 211.089C127.79 207.186 134.123 207.188 138.024 211.096C141.928 215.003 141.925 221.334 138.018 225.237L86.0254 277.177C84.0732 279.127 81.5156 280.103 78.958 280.103Z" fill="#010202"/>
</svg>
