<svg width="380" height="337" viewBox="0 0 380 337" fill="none" xmlns="http://www.w3.org/2000/svg">
<path d="M310.58 230.091L299.996 230.087L69.7168 230C31.2749 230 0 198.639 0 160.089C0 126.813 22.9863 98.9956 54.2788 91.9214C53.7705 89.1226 53.5146 86.2661 53.5146 83.3638C53.5146 57.1108 74.8726 35.7524 101.125 35.7524C109.846 35.7524 118.203 38.0786 125.495 42.4395C145.477 16.0147 176.309 0.538086 209.956 0.538086C262.541 0.538086 306.865 39.2666 314.734 90.3042C351.136 92.7524 380 123.138 380 160.138C380 198.334 348.904 229.715 310.682 230.09C310.648 230.091 310.614 230.091 310.58 230.091ZM300.003 210.087L310.535 210.091C337.815 209.796 360 187.397 360 160.138C360 132.572 337.562 110.145 309.983 110.145C308.805 110.145 307.545 110.222 306.468 110.296C303.816 110.483 301.194 109.6 299.191 107.847C297.188 106.095 295.966 103.616 295.795 100.96C292.903 55.8638 255.197 20.5381 209.956 20.5381C179.617 20.5381 152.098 36.0483 136.342 62.0273C134.747 64.6572 132.03 66.4067 128.976 66.7715C125.921 67.1313 122.87 66.0747 120.701 63.8936C115.48 58.6436 108.528 55.7524 101.125 55.7524C85.9009 55.7524 73.5146 68.1387 73.5146 83.3638C73.5146 87.7075 74.5005 91.8706 76.4448 95.7378C77.9717 98.7749 77.8511 102.38 76.1245 105.309C74.3979 108.237 71.3018 110.087 67.9048 110.222C41.0425 111.282 20 133.187 20 160.089C20 187.61 42.3027 210 69.7168 210H80L300.003 210.087Z" fill="#010202"/>
<path d="M154.958 336.939C152.397 336.939 149.836 335.962 147.883 334.007C143.98 330.1 143.983 323.768 147.891 319.865L172.933 294.849C176.84 290.945 183.172 290.948 187.075 294.855C190.978 298.763 190.975 305.095 187.067 308.997L162.025 334.014C160.073 335.964 157.515 336.939 154.958 336.939Z" fill="#010202"/>
<path d="M67.958 279.939C65.397 279.939 62.8364 278.962 60.8833 277.007C56.98 273.1 56.9834 266.769 60.8906 262.865L76.6826 247.089C80.5898 243.186 86.9214 243.188 90.8247 247.096C94.728 251.003 94.7246 257.334 90.8174 261.237L75.0254 277.014C73.0732 278.964 70.5156 279.939 67.958 279.939Z" fill="#010202"/>
<path d="M206.958 279.939C204.397 279.939 201.836 278.962 199.883 277.007C195.98 273.1 195.983 266.769 199.891 262.865L215.683 247.089C219.59 243.186 225.921 243.188 229.825 247.096C233.728 251.003 233.725 257.334 229.817 261.237L214.025 277.014C212.073 278.964 209.516 279.939 206.958 279.939Z" fill="#010202"/>
<path d="M251.958 305.103C249.396 305.103 246.835 304.125 244.882 302.169C240.979 298.262 240.984 291.93 244.892 288.027L285.884 247.088C289.792 243.185 296.123 243.188 300.026 247.097C303.929 251.004 303.924 257.336 300.017 261.238L259.024 302.178C257.072 304.128 254.515 305.103 251.958 305.103Z" fill="#010202"/>
<path d="M100.958 316.103C98.397 316.103 95.8364 315.125 93.8833 313.17C89.98 309.263 89.9834 302.932 93.8906 299.028L145.883 247.089C149.79 243.186 156.122 243.188 160.025 247.096C163.928 251.003 163.925 257.334 160.018 261.237L108.025 313.177C106.073 315.127 103.515 316.103 100.958 316.103Z" fill="#010202"/>
</svg>
