<svg width="416" height="473" viewBox="0 0 416 473" fill="none" xmlns="http://www.w3.org/2000/svg">
<path d="M301.532 233.5C299.017 233.5 296.506 232.508 294.638 230.539C291.027 226.732 291.186 220.719 294.992 217.108C309.482 203.363 317.463 184.798 317.463 164.833C317.463 125.111 285.147 92.7954 245.425 92.7954C210.536 92.7954 180.724 117.668 174.536 151.938C173.604 157.1 168.659 160.529 163.5 159.599C158.336 158.667 154.906 153.725 155.839 148.562C163.66 105.239 201.337 73.7954 245.425 73.7954C295.623 73.7954 336.463 114.635 336.463 164.833C336.463 190.063 326.379 213.523 308.068 230.893C306.232 232.636 303.879 233.5 301.532 233.5Z" fill="#010202"/>
<path d="M217.268 65.8277C212.898 65.8277 208.965 62.795 207.996 58.3506L197.977 12.4307C196.858 7.30471 200.107 2.2427 205.233 1.12405C210.369 0.00442147 215.423 3.2554 216.54 8.38089L226.558 54.3008C227.678 59.4268 224.429 64.4888 219.303 65.6075C218.62 65.7564 217.938 65.8277 217.268 65.8277Z" fill="#010202"/>
<path d="M356.9 154.605C352.53 154.605 348.597 151.572 347.628 147.128C346.509 142.002 349.758 136.94 354.884 135.821L403.734 125.164C408.871 124.044 413.924 127.295 415.041 132.42C416.16 137.546 412.911 142.608 407.785 143.727L358.934 154.385C358.252 154.534 357.57 154.605 356.9 154.605Z" fill="#010202"/>
<path d="M305.773 81.8574C304.016 81.8574 302.238 81.3711 300.65 80.3515C296.234 77.5176 294.952 71.6406 297.786 67.2251L324.595 25.456C327.429 21.0405 333.305 19.7588 337.722 22.5923C342.137 25.4263 343.419 31.3032 340.585 35.7187L313.776 77.4878C311.962 80.3149 308.9 81.8574 305.773 81.8574Z" fill="#010202"/>
<path d="M149.025 116.055C147.269 116.055 145.491 115.568 143.903 114.549L102.134 87.7407C97.7178 84.9067 96.4356 79.0298 99.2696 74.6142C102.104 70.1987 107.981 68.917 112.396 71.7505L154.165 98.5586C158.581 101.393 159.863 107.27 157.029 111.685C155.215 114.512 152.152 116.055 149.025 116.055Z" fill="#010202"/>
<path d="M380.762 265.626C379.005 265.626 377.228 265.14 375.639 264.121L333.87 237.313C329.455 234.479 328.173 228.602 331.007 224.186C333.841 219.771 339.717 218.487 344.134 221.322L385.902 248.13C390.317 250.964 391.6 256.841 388.766 261.257C386.951 264.084 383.889 265.626 380.762 265.626Z" fill="#010202"/>
<path d="M64.1104 373.561C29.0117 373.33 0.507812 344.68 0.507812 309.696C0.507812 279.44 21.2783 254.126 49.6172 247.516C49.2002 245.087 48.9912 242.611 48.9912 240.097C48.9912 216.07 68.5381 196.523 92.5654 196.523C100.411 196.523 107.938 198.582 114.53 202.444C132.724 178.586 160.673 164.624 191.164 164.624C238.908 164.624 279.171 199.703 286.474 245.993C319.515 248.399 345.661 276.051 345.661 309.696C345.661 344.564 317.293 373.212 282.425 373.556L64.1104 373.561ZM92.5654 215.523C79.0156 215.523 67.9912 226.547 67.9912 240.097C67.9912 243.963 68.8682 247.668 70.5986 251.109C72.0498 253.995 71.9355 257.419 70.2949 260.202C68.6553 262.984 65.7139 264.742 62.4863 264.87C38.3857 265.821 19.5078 285.511 19.5078 309.696C19.5078 334.272 39.5449 354.398 64.1729 354.561L282.331 354.556C306.732 354.315 326.661 334.191 326.661 309.696C326.661 284.953 306.53 264.822 281.787 264.822C280.861 264.822 279.859 264.862 278.632 264.947C276.102 265.126 273.621 264.284 271.72 262.62C269.816 260.955 268.656 258.601 268.494 256.078C265.888 215.449 231.921 183.624 191.164 183.624C163.833 183.624 139.041 197.595 124.848 220.998C123.332 223.496 120.752 225.158 117.851 225.504C114.947 225.849 112.049 224.841 109.989 222.771C105.341 218.097 99.1523 215.523 92.5654 215.523Z" fill="#010202"/>
<path d="M147.452 472.822C145.02 472.822 142.587 471.893 140.731 470.036C137.023 466.324 137.026 460.309 140.738 456.601L163.426 433.937C167.138 430.229 173.152 430.231 176.86 433.943C180.568 437.655 180.565 443.67 176.854 447.378L154.166 470.042C152.312 471.896 149.882 472.822 147.452 472.822Z" fill="#010202"/>
<path d="M68.6318 421.181C66.1992 421.181 63.7666 420.252 61.9111 418.395C58.2031 414.683 58.2061 408.668 61.918 404.96L76.2256 390.667C79.9365 386.96 85.9512 386.962 89.6602 390.674C93.3682 394.386 93.3652 400.401 89.6533 404.109L75.3457 418.402C73.4912 420.255 71.0615 421.181 68.6318 421.181Z" fill="#010202"/>
<path d="M194.563 421.181C192.131 421.181 189.698 420.253 187.843 418.396C184.135 414.684 184.138 408.668 187.85 404.96L202.156 390.667C205.868 386.96 211.883 386.962 215.591 390.674C219.299 394.386 219.296 400.401 215.584 404.109L201.277 418.402C199.423 420.254 196.993 421.181 194.563 421.181Z" fill="#010202"/>
<path d="M235.333 443.979C232.899 443.979 230.467 443.049 228.611 441.192C224.903 437.479 224.907 431.464 228.62 427.757L265.758 390.667C269.47 386.958 275.484 386.963 279.192 390.675C282.9 394.387 282.896 400.402 279.183 404.11L242.046 441.2C240.191 443.053 237.763 443.979 235.333 443.979Z" fill="#010202"/>
<path d="M98.5293 453.944C96.0967 453.944 93.6641 453.016 91.8086 451.159C88.1006 447.447 88.1035 441.432 91.8154 437.724L138.919 390.667C142.631 386.959 148.646 386.963 152.354 390.674C156.062 394.386 156.059 400.401 152.347 404.109L105.243 451.165C103.389 453.018 100.959 453.944 98.5293 453.944Z" fill="#010202"/>
</svg>
