<svg width="437" height="416" viewBox="0 0 437 416" fill="none" xmlns="http://www.w3.org/2000/svg">
<path d="M399.708 250H82C76.4775 250 72 245.522 72 240C72 234.478 76.4775 230 82 230H399.708C408.599 230 416.109 222.392 416.109 213.386C416.109 204.225 408.877 196.771 399.986 196.771C391.173 196.771 384.002 204.172 384.002 213.268C384.002 218.79 379.524 223.268 374.002 223.268C368.479 223.268 364.002 218.79 364.002 213.268C364.002 193.144 380.145 176.771 399.986 176.771C419.904 176.771 436.109 193.196 436.109 213.386C436.109 233.575 419.78 250 399.708 250Z" fill="#010202"/>
<path d="M325.605 362.573C313.458 362.573 302.104 357.849 293.635 349.271C285.221 340.747 280.587 329.367 280.587 317.228C280.587 311.705 285.064 307.228 290.587 307.228C296.109 307.228 300.587 311.705 300.587 317.228C300.587 331.44 311.576 342.573 325.605 342.573C339.76 342.573 350.848 331.466 350.848 317.287C350.848 303.344 339.324 292 325.16 292H57C51.4775 292 47 287.522 47 282C47 276.478 51.4775 272 57 272H325.16C350.353 272 370.848 292.315 370.848 317.287C370.848 342.258 350.552 362.573 325.605 362.573Z" fill="#010202"/>
<path d="M216.16 213H108C102.478 213 98 208.522 98 203C98 197.478 102.478 193 108 193H216.16C230.324 193 241.848 181.585 241.848 167.554C241.848 153.522 230.524 142.106 216.605 142.106C202.576 142.106 191.587 153.287 191.587 167.56C191.587 173.082 187.109 177.56 181.587 177.56C176.064 177.56 171.587 173.082 171.587 167.56C171.587 142.497 191.782 122.106 216.605 122.106C241.552 122.106 261.848 142.494 261.848 167.554C261.848 192.613 241.353 213 216.16 213Z" fill="#010202"/>
<path d="M158.958 415.939C156.396 415.939 153.836 414.962 151.884 413.007C147.98 409.1 147.983 402.768 151.891 398.865L176.933 373.849C180.84 369.945 187.173 369.948 191.074 373.855C194.978 377.763 194.975 384.095 191.067 387.997L166.025 413.014C164.073 414.964 161.516 415.939 158.958 415.939Z" fill="#010202"/>
<path d="M71.958 358.939C69.3965 358.939 66.8369 357.962 64.8838 356.007C60.9805 352.1 60.9834 345.769 64.8906 341.865L80.6826 326.089C84.5898 322.186 90.9209 322.188 94.8242 326.096C98.7275 330.003 98.7246 336.334 94.8174 340.237L79.0254 356.014C77.0732 357.964 74.5156 358.939 71.958 358.939Z" fill="#010202"/>
<path d="M210.958 358.939C208.396 358.939 205.837 357.962 203.884 356.007C199.98 352.1 199.983 345.769 203.891 341.865L219.683 326.089C223.59 322.186 229.921 322.188 233.824 326.096C237.728 330.003 237.725 336.334 233.817 340.237L218.025 356.014C216.073 357.964 213.516 358.939 210.958 358.939Z" fill="#010202"/>
<path d="M253.958 397.103C251.394 397.103 248.831 396.123 246.877 394.164C242.977 390.253 242.986 383.922 246.896 380.021L265.889 361.082C269.8 357.183 276.13 357.19 280.031 361.102C283.931 365.013 283.922 371.344 280.012 375.244L261.019 394.184C259.067 396.13 256.513 397.103 253.958 397.103Z" fill="#010202"/>
<path d="M104.958 395.103C102.396 395.103 99.8359 394.125 97.8838 392.17C93.9805 388.263 93.9834 381.932 97.8906 378.028L149.883 326.089C153.79 322.186 160.123 322.188 164.024 326.096C167.928 330.003 167.925 336.334 164.018 340.237L112.025 392.177C110.073 394.127 107.516 395.103 104.958 395.103Z" fill="#010202"/>
<path d="M286.775 214H277C271.478 214 267 209.522 267 204C267 198.478 271.478 194 277 194H286.603C311.772 193.088 331.465 173.188 331.465 148.63C331.465 123.644 311.169 103.316 286.223 103.316C284.939 103.316 283.929 103.345 283.042 103.406C280.372 103.594 277.768 102.709 275.766 100.957C273.763 99.2051 272.541 96.7266 272.37 94.0713C269.733 52.9658 235.376 20.7676 194.152 20.7676C166.504 20.7676 141.428 34.8965 127.073 58.5615C125.479 61.1914 122.762 62.9414 119.708 63.3057C116.663 63.668 113.603 62.6094 111.434 60.4277C106.773 55.7432 100.575 53.1631 93.9785 53.1631C80.4043 53.1631 69.3604 64.2061 69.3604 77.7793C69.3604 81.6504 70.2393 85.3623 71.9727 88.8115C73.5 91.8496 73.3789 95.4541 71.6523 98.3818C69.9248 101.311 66.8291 103.161 63.4326 103.295C39.1357 104.254 20.1025 124.105 20.1025 148.488C20.1025 173.345 40.3037 193.7 65.1348 193.863L73.7646 193.868C79.2871 193.871 83.7617 198.351 83.7588 203.874C83.7559 209.395 79.2793 213.868 73.7588 213.868C73.7568 213.868 73.7549 213.868 73.7529 213.868L65.0625 213.863C29.2168 213.627 0.102539 184.3 0.102539 148.488C0.102539 117.698 21.1641 91.9189 49.9473 85.0518C49.5566 82.668 49.3604 80.2412 49.3604 77.7793C49.3604 53.1777 69.376 33.1631 93.9785 33.1631C101.907 33.1631 109.517 35.2168 116.205 39.0752C134.756 14.9033 163.165 0.767578 194.152 0.767578C242.749 0.767578 283.744 36.4248 291.291 83.5117C324.905 86.1104 351.465 114.324 351.465 148.63C351.465 184.09 323.195 212.802 287.105 213.994C286.996 213.998 286.886 214 286.775 214Z" fill="#010202"/>
</svg>
