<svg width="380" height="380" viewBox="0 0 380 380" fill="none" xmlns="http://www.w3.org/2000/svg">
<path d="M190.098 290.098C134.958 290.098 90.0977 245.238 90.0977 190.098C90.0977 134.958 134.958 90.0977 190.098 90.0977C245.238 90.0977 290.098 134.958 290.098 190.098C290.098 245.238 245.238 290.098 190.098 290.098ZM190.098 110.098C145.985 110.098 110.098 145.985 110.098 190.098C110.098 234.21 145.985 270.098 190.098 270.098C234.21 270.098 270.098 234.21 270.098 190.098C270.098 145.985 234.21 110.098 190.098 110.098Z" fill="#010202"/>
<path d="M190 74C184.477 74 180 69.5229 180 64V10C180 4.47705 184.477 0 190 0C195.523 0 200 4.47705 200 10V64C200 69.5229 195.523 74 190 74Z" fill="#010202"/>
<path d="M190 380C184.477 380 180 375.523 180 370V316C180 310.477 184.477 306 190 306C195.523 306 200 310.477 200 316V370C200 375.523 195.523 380 190 380Z" fill="#010202"/>
<path d="M64 200H10C4.47705 200 0 195.523 0 190C0 184.477 4.47705 180 10 180H64C69.5229 180 74 184.477 74 190C74 195.523 69.5229 200 64 200Z" fill="#010202"/>
<path d="M370 200H316C310.477 200 306 195.523 306 190C306 184.477 310.477 180 316 180H370C375.523 180 380 184.477 380 190C380 195.523 375.523 200 370 200Z" fill="#010202"/>
<path d="M278.542 111.458C275.983 111.458 273.423 110.482 271.471 108.529C267.566 104.624 267.566 98.292 271.471 94.3867L310.208 55.6494C314.113 51.7441 320.445 51.7441 324.35 55.6494C328.255 59.5547 328.255 65.8867 324.35 69.792L285.613 108.529C283.661 110.482 281.101 111.458 278.542 111.458Z" fill="#010202"/>
<path d="M62.7206 327.279C60.1615 327.279 57.6019 326.303 55.6493 324.351C51.7445 320.445 51.7445 314.113 55.6493 310.208L94.3866 271.471C98.2919 267.565 104.624 267.565 108.529 271.471C112.434 275.376 112.434 281.708 108.529 285.613L69.7919 324.351C67.8392 326.303 65.2797 327.279 62.7206 327.279Z" fill="#010202"/>
<path d="M101.458 111.458C98.8988 111.458 96.3392 110.482 94.3866 108.529L55.6493 69.792C51.7445 65.8867 51.7445 59.5547 55.6493 55.6494C59.5546 51.7441 65.8866 51.7441 69.7919 55.6494L108.529 94.3867C112.434 98.292 112.434 104.624 108.529 108.529C106.577 110.482 104.017 111.458 101.458 111.458Z" fill="#010202"/>
<path d="M317.279 327.279C314.72 327.279 312.161 326.303 310.208 324.351L271.471 285.613C267.566 281.708 267.566 275.376 271.471 271.471C275.376 267.565 281.708 267.565 285.613 271.471L324.35 310.208C328.255 314.113 328.255 320.445 324.35 324.351C322.398 326.303 319.838 327.279 317.279 327.279Z" fill="#010202"/>
</svg>
