<svg width="380" height="315" viewBox="0 0 380 315" fill="none" xmlns="http://www.w3.org/2000/svg">
<path d="M310.58 230.091L299.996 230.087L69.7168 230C31.2749 230 0 198.639 0 160.09C0 126.813 22.9863 98.9961 54.2788 91.9219C53.77 89.123 53.5146 86.2656 53.5146 83.3633C53.5146 57.1104 74.8726 35.7529 101.125 35.7529C109.846 35.7529 118.204 38.0791 125.495 42.4395C145.477 16.0147 176.309 0.538086 209.956 0.538086C262.541 0.538086 306.865 39.2666 314.734 90.3047C351.136 92.7529 380 123.139 380 160.138C380 198.334 348.904 229.715 310.682 230.09C310.648 230.091 310.614 230.091 310.58 230.091ZM300.003 210.087L310.535 210.091C337.815 209.796 360 187.397 360 160.138C360 132.572 337.562 110.146 309.983 110.146C308.798 110.146 307.542 110.222 306.468 110.296C303.816 110.489 301.194 109.6 299.191 107.847C297.188 106.095 295.966 103.616 295.795 100.961C292.903 55.8643 255.197 20.5381 209.956 20.5381C179.617 20.5381 152.098 36.0479 136.342 62.0273C134.747 64.6572 132.03 66.4072 128.976 66.7715C125.922 67.1318 122.87 66.0742 120.701 63.8936C115.48 58.6436 108.528 55.7529 101.125 55.7529C85.9009 55.7529 73.5146 68.1387 73.5146 83.3633C73.5146 87.708 74.5005 91.8711 76.4443 95.7373C77.9717 98.7744 77.8511 102.38 76.1245 105.309C74.3979 108.236 71.3018 110.088 67.9048 110.222C41.0425 111.282 20 133.188 20 160.09C20 187.61 42.3027 210 69.7168 210H80L300.003 210.087Z" fill="#010202"/>
<path d="M287.625 315C287.623 315 287.621 315 287.618 315L231.243 314.976C225.721 314.972 221.247 310.505 221.25 304.981C221.253 299.461 225.73 295 231.25 295C231.252 295 231.254 295 231.257 295L287.632 295.032C293.154 295.036 297.628 299.499 297.625 305.023C297.622 310.543 293.145 315 287.625 315Z" fill="#010202"/>
<path d="M192.25 315C192.249 315 192.248 315 192.246 315L92.8301 314.976C87.3076 314.974 82.832 310.508 82.834 304.984C82.8359 299.463 87.313 295 92.834 295C92.8354 295 92.8364 295 92.8379 295L192.254 295.032C197.776 295.034 202.252 299.496 202.25 305.02C202.248 310.541 197.771 315 192.25 315Z" fill="#010202"/>
<path d="M310.875 273C310.874 273 310.873 273 310.872 273L181.331 272.976C175.808 272.974 171.333 268.508 171.334 262.985C171.335 257.464 175.813 253 181.334 253C181.335 253 181.336 253 181.337 253L310.878 253.032C316.401 253.034 320.876 257.496 320.875 263.019C320.874 268.54 316.396 273 310.875 273Z" fill="#010202"/>
<path d="M143.875 273C143.873 273 143.872 273 143.87 273L72.3286 272.976C66.8062 272.973 62.3311 268.506 62.334 262.983C62.3369 257.462 66.814 253 72.334 253C72.3359 253 72.3369 253 72.3394 253L143.88 253.032C149.403 253.035 153.878 257.498 153.875 263.021C153.872 268.542 149.395 273 143.875 273Z" fill="#010202"/>
</svg>
